<?xml version="1.0" encoding="utf-8"?>
<!-- Generator: Adobe Illustrator 27.7.0, SVG Export Plug-In . SVG Version: 6.00 Build 0)  -->
<svg version="1.1" id="Layer_1" xmlns="http://www.w3.org/2000/svg" xmlns:xlink="http://www.w3.org/1999/xlink" x="0px" y="0px"
	 viewBox="0 0 161 161" style="enable-background:new 0 0 161 161;" xml:space="preserve">
<style type="text/css">
	.st0{fill:none;stroke:#0D0D0D;stroke-width:2;stroke-miterlimit:10;}
</style>
<polyline class="st0" points="103.1,119.1 80.5,158.2 58,119.3 "/>
<polyline class="st0" points="102.9,42.2 147.5,42.2 125,81.1 "/>
<polyline class="st0" points="58,42.2 80.5,42.2 102.9,42.2 "/>
<polyline class="st0" points="36,81.2 13.5,42.2 58,42.2 "/>
<circle class="st0" cx="80.5" cy="80.5" r="79.5"/>
<polygon class="st0" points="80.5,119.4 13.5,119.4 47,61.3 80.5,3.3 114,61.3 147.5,119.4 "/>
<line class="st0" x1="24.4" y1="99.8" x2="136.3" y2="99.8"/>
<line class="st0" x1="35.5" y1="80.5" x2="125.5" y2="80.5"/>
<line class="st0" x1="46.8" y1="61.2" x2="114.2" y2="61.2"/>
<path d="M32.8,48.4v-1.1c-1.3,0-2.5,0.9-2.7,2.2H29v-1.1h-1.1v1.1h-1.1c-0.2-1.3-1.3-2.2-2.7-2.2v1.1c1,0,1.7,0.7,1.7,1.7
	c0,0.9-0.7,1.7-1.7,1.7v1.1c1.4,0,2.4-0.9,2.7-2.2h1.1v1.2c-0.7,0.2-1.1,0.8-1.1,1.6c0,0.9,0.7,1.7,1.7,1.7c0.9,0,1.7-0.7,1.7-1.7
	c0-0.7-0.5-1.3-1.1-1.6v-1.2H30c0.3,1.3,1.4,2.2,2.7,2.2v-1.1c-1,0-1.7-0.7-1.7-1.7C31.1,49.1,31.8,48.4,32.8,48.4z M28.4,53.9
	c-0.3,0-0.6-0.2-0.6-0.6c0-0.3,0.2-0.6,0.6-0.6c0.3,0,0.6,0.2,0.6,0.6C28.9,53.7,28.7,53.9,28.4,53.9z"/>
<path d="M112.5,126.9c0-2.1-1.7-3.7-3.8-3.7c-2.1,0-3.8,1.7-3.8,3.7c0,1.8,1.3,3.3,3,3.7v1.4h-1.3v1.3h1.3v1.3h1.4v-1.3h1.3v-1.3
	h-1.3v-1.3C111.2,130.3,112.5,128.8,112.5,126.9z M106.3,126.9c0-1.4,1.1-2.5,2.5-2.5c1.4,0,2.5,1.1,2.5,2.5c0,1.4-1.1,2.5-2.5,2.5
	C107.4,129.4,106.3,128.3,106.3,126.9z"/>
<path d="M52.7,126.5v-1.1h1.3v-1.3h-1.3v-1.4h-1.3v1.4h-1.2v1.3h1.2v2.4h1.3c1.4,0,2.5,1.1,2.5,2.5c0,1.4-1.1,2.5-2.5,2.5
	c-0.5,0-0.9-0.1-1.3-0.3v1.4c0.5,0.1,0.8,0.2,1.3,0.2c2.1,0,3.7-1.7,3.7-3.7C56.4,128.2,54.9,126.5,52.7,126.5z"/>
<g>
	<path d="M80.3,140.5c0.9,0,1.7-0.7,1.7-1.7c0-0.9-0.7-1.7-1.7-1.7c-0.9,0-1.7,0.7-1.7,1.7C78.6,139.7,79.4,140.5,80.3,140.5z
		 M80.3,138.3c0.3,0,0.6,0.2,0.6,0.6c0,0.3-0.2,0.6-0.6,0.6c-0.3,0-0.6-0.2-0.6-0.6C79.7,138.5,80,138.3,80.3,138.3z"/>
	<path d="M84.1,139.4H83c-0.3,1.3-1.4,2.2-2.7,2.2c-1.3,0-2.5-0.9-2.7-2.2h-1.1c0.2,1.7,1.6,3.1,3.4,3.3v1.2h-1.1v1.1h1.1v1.1h1V145
		H82v-1.1h-1.1v-1.2C82.5,142.4,83.9,141,84.1,139.4z"/>
</g>
<g>
	<path d="M108.4,27.5c-2.8,0-5,2.2-5,5c0,2.8,2.2,5,5,5c2.8,0,5-2.2,5-5C113.4,29.7,111.2,27.5,108.4,27.5z M108.4,36.2
		c-2.1,0-3.7-1.7-3.7-3.7c0-2.1,1.7-3.7,3.7-3.7c2.1,0,3.7,1.7,3.7,3.7C112.2,34.5,110.5,36.2,108.4,36.2z"/>
	<path d="M108.4,31.1c-0.7,0-1.2,0.6-1.2,1.2c0,0.7,0.6,1.2,1.2,1.2c0.7,0,1.2-0.6,1.2-1.2C109.7,31.6,109.1,31.1,108.4,31.1z"/>
</g>
<path d="M142,75.1h-2.5v1.2h1.6l-2.1,2.1c-0.7-0.5-1.6-0.9-2.6-0.9c-2.4,0-4.4,2-4.4,4.4c0,2.4,2,4.4,4.4,4.4c2.4,0,4.4-2,4.4-4.4
	c0-1-0.3-1.9-0.8-2.6l2.1-2.1v1.6h1.3v-2.5v-1.2H142z M136.4,85c-1.7,0-3.1-1.4-3.1-3.1c0-1.7,1.4-3.1,3.1-3.1
	c1.7,0,3.1,1.4,3.1,3.1C139.6,83.6,138.2,85,136.4,85z"/>
<path d="M53.9,35.9c-0.1-0.1-0.4-0.3-0.6-0.4c0,0,0,0,0,0c-0.1-0.1-0.2-0.2-0.3-0.3c0,0,0,0,0,0C53,35.1,52.9,35,52.9,35
	c0,0,0,0,0,0c-0.1-0.1-0.2-0.2-0.3-0.4c0,0,0,0,0,0c0-0.1-0.1-0.1-0.1-0.2c0,0,0,0,0,0c-0.1-0.1-0.1-0.3-0.2-0.4c0,0,0,0,0,0
	c0-0.1,0-0.1-0.1-0.2c0,0,0,0,0-0.1c0-0.1,0-0.1-0.1-0.2c0,0,0,0,0,0c0-0.1,0-0.1,0-0.2c0,0,0,0,0-0.1c0-0.1,0-0.1,0-0.2
	c0,0,0,0,0-0.1c0-0.1,0-0.2,0-0.2c0-0.1,0-0.2,0-0.2c0,0,0,0,0-0.1c0-0.1,0-0.1,0-0.2c0,0,0,0,0-0.1c0-0.1,0-0.2,0-0.2c0,0,0,0,0,0
	c0-0.1,0-0.1,0.1-0.2c0,0,0,0,0-0.1c0-0.1,0-0.1,0.1-0.2c0,0,0,0,0,0c0.1-0.1,0.1-0.3,0.2-0.4c0,0,0,0,0,0c0-0.1,0.1-0.1,0.1-0.2
	c0,0,0,0,0,0c0.1-0.1,0.2-0.3,0.3-0.4c0,0,0,0,0,0c0-0.1,0.1-0.1,0.1-0.2c0,0,0,0,0,0c0.1-0.1,0.2-0.2,0.3-0.3c0,0,0,0,0,0
	c0.2-0.2,0.4-0.3,0.6-0.4h0c0.4-0.3,0.9-0.4,1.5-0.5c-0.4-0.4-0.9-0.7-1.5-0.9c-0.1-0.1-0.3-0.1-0.4-0.2c0,0,0,0,0,0
	c-0.1,0-0.1,0-0.2-0.1c0,0,0,0,0,0c-0.1,0-0.1,0-0.2,0c0,0,0,0,0,0c-0.1,0-0.1,0-0.2,0c0,0,0,0-0.1,0c-0.1,0-0.1,0-0.2,0
	c0,0-0.1,0-0.1,0c0,0-0.1,0-0.1,0c-0.1,0-0.2,0-0.3,0c-2.8,0-5,2.2-5,5c0,2.8,2.2,5,5,5c0.1,0,0.2,0,0.3,0c0,0,0.1,0,0.1,0
	c0,0,0.1,0,0.1,0c0.1,0,0.1,0,0.2,0c0,0,0,0,0.1,0c0.1,0,0.1,0,0.2,0c0,0,0,0,0,0c0.1,0,0.1,0,0.2,0c0,0,0,0,0,0
	c0.1,0,0.2,0,0.2-0.1c0,0,0,0,0,0c0.2,0,0.3-0.1,0.4-0.2c0.5-0.2,1-0.5,1.4-0.9C54.9,36.3,54.4,36.2,53.9,35.9L53.9,35.9z
	 M52.1,36.4c-2.1,0-3.7-1.7-3.7-3.7s1.7-3.7,3.7-3.7c0.1,0,0.3,0,0.4,0c-1,0.9-1.7,2.2-1.7,3.7c0,1.5,0.6,2.8,1.7,3.7
	C52.4,36.4,52.2,36.4,52.1,36.4z"/>
<path d="M136.7,46.8l-1.1,1.5h0.6c0,0.9-0.8,1.9-1.6,2.1v-2.1h0.5l-1.1-1.5l-1.1,1.5h0.6v2.1c-1-0.3-1.7-1.3-1.7-2.1h0.6l-1.1-1.5
	l-1.1,1.5h0.6c0,1.5,1.2,3,2.8,3.3v1.1h-1.1v1.1h1.1v1.1h1.1v-1.1h1v-1.1h-1v-1.1c1.5-0.3,2.7-1.8,2.7-3.3h0.6L136.7,46.8z"/>
<path d="M29.4,80.4h-1.3v-2.8h-1.4v2.8h-1.5c0.4-0.7,0.7-1.3,0.7-2.1c0-1.9-1.7-3.5-3.5-3.5v1.4c1.2,0,2.1,0.9,2.1,2.1
	c0,1.2-0.9,2.1-2.1,2.1v1.5h4.4v4.3h1.4v-4.3h1.3V80.4z"/>
<path d="M80.3,15.1c-2.5,0-4.4,2-4.4,4.4c0,2.5,2,4.4,4.4,4.4c2.5,0,4.4-2,4.4-4.4C84.7,17.1,82.7,15.1,80.3,15.1z M83.6,19h-2.7
	v-2.7C82.3,16.6,83.3,17.6,83.6,19z M79.7,16.3V19H77C77.3,17.6,78.3,16.6,79.7,16.3z M77,20.2h2.7v2.7C78.3,22.6,77.3,21.5,77,20.2
	z M80.9,22.9v-2.7h2.7C83.3,21.5,82.3,22.6,80.9,22.9z"/>
</svg>
