<?xml version="1.0" encoding="utf-8"?>
<!-- Generator: Adobe Illustrator 27.7.0, SVG Export Plug-In . SVG Version: 6.00 Build 0)  -->
<svg version="1.1" id="Layer_1" xmlns="http://www.w3.org/2000/svg" xmlns:xlink="http://www.w3.org/1999/xlink" x="0px" y="0px"
	 viewBox="0 0 161 161" style="enable-background:new 0 0 161 161;" xml:space="preserve">
<path d="M87.1,78.2c0-2.3-1.2-4.2-2.9-5.4c1.7-1.2,2.7-3.3,2.7-5.4h-2.7c0,2.3-1.8,4.1-4.1,4.1c-2.3,0-4.1-1.8-4.1-4.1h-2.7
	c0,2.3,1.1,4.2,2.8,5.4c-1.7,1.2-2.8,3.2-2.8,5.4c0,3.3,2.3,6,5.5,6.6v2.9h-2.7v2.7h2.7v3h3v-3h2.7v-2.7h-2.7v-2.9
	C84.8,84.1,87.1,81.4,87.1,78.2z M76.2,78.2c0-2.3,1.8-4.1,4.1-4.1c2.3,0,4.1,1.8,4.1,4.1c0,2.3-1.8,4.1-4.1,4.1
	C78,82.3,76.2,80.4,76.2,78.2z"/>
</svg>
