<?xml version="1.0" encoding="utf-8"?>
<!-- Generator: Adobe Illustrator 27.7.0, SVG Export Plug-In . SVG Version: 6.00 Build 0)  -->
<svg version="1.1" id="Layer_1" xmlns="http://www.w3.org/2000/svg" xmlns:xlink="http://www.w3.org/1999/xlink" x="0px" y="0px"
	 viewBox="0 0 161 161" style="enable-background:new 0 0 161 161;" xml:space="preserve">
<path d="M32.8,48.4v-1.1c-1.3,0-2.5,0.9-2.7,2.2H29v-1.1h-1.1v1.1h-1.1c-0.2-1.3-1.3-2.2-2.7-2.2v1.1c1,0,1.7,0.7,1.7,1.7
	c0,0.9-0.7,1.7-1.7,1.7v1.1c1.4,0,2.4-0.9,2.7-2.2h1.1v1.2c-0.7,0.2-1.1,0.8-1.1,1.6c0,0.9,0.7,1.7,1.7,1.7c0.9,0,1.7-0.7,1.7-1.7
	c0-0.7-0.5-1.3-1.1-1.6v-1.2H30c0.3,1.3,1.4,2.2,2.7,2.2v-1.1c-1,0-1.7-0.7-1.7-1.7C31.1,49.1,31.8,48.4,32.8,48.4z M28.4,53.9
	c-0.3,0-0.6-0.2-0.6-0.6c0-0.3,0.2-0.6,0.6-0.6c0.3,0,0.6,0.2,0.6,0.6C28.9,53.7,28.7,53.9,28.4,53.9z"/>
<path d="M112.5,126.9c0-2.1-1.7-3.7-3.8-3.7c-2.1,0-3.8,1.7-3.8,3.7c0,1.8,1.3,3.3,3,3.7v1.4h-1.3v1.3h1.3v1.3h1.4v-1.3h1.3V132
	h-1.3v-1.3C111.2,130.3,112.5,128.8,112.5,126.9z M106.3,126.9c0-1.4,1.1-2.5,2.5-2.5s2.5,1.1,2.5,2.5s-1.1,2.5-2.5,2.5
	S106.3,128.3,106.3,126.9z"/>
<path d="M52.7,126.5v-1.1H54v-1.3h-1.3v-1.4h-1.3v1.4h-1.2v1.3h1.2v2.4h1.3c1.4,0,2.5,1.1,2.5,2.5s-1.1,2.5-2.5,2.5
	c-0.5,0-0.9-0.1-1.3-0.3v1.4c0.5,0.1,0.8,0.2,1.3,0.2c2.1,0,3.7-1.7,3.7-3.7C56.4,128.2,54.9,126.5,52.7,126.5z"/>
<g>
	<path d="M80.3,140.5c0.9,0,1.7-0.7,1.7-1.7c0-0.9-0.7-1.7-1.7-1.7c-0.9,0-1.7,0.7-1.7,1.7C78.6,139.7,79.4,140.5,80.3,140.5z
		 M80.3,138.3c0.3,0,0.6,0.2,0.6,0.6c0,0.3-0.2,0.6-0.6,0.6c-0.3,0-0.6-0.2-0.6-0.6C79.7,138.5,80,138.3,80.3,138.3z"/>
	<path d="M84.1,139.4H83c-0.3,1.3-1.4,2.2-2.7,2.2c-1.3,0-2.5-0.9-2.7-2.2h-1.1c0.2,1.7,1.6,3.1,3.4,3.3v1.2h-1.1v1.1h1.1v1.1h1V145
		H82v-1.1h-1.1v-1.2C82.5,142.4,83.9,141,84.1,139.4z"/>
</g>
<g>
	<path d="M108.4,27.5c-2.8,0-5,2.2-5,5s2.2,5,5,5s5-2.2,5-5S111.2,27.5,108.4,27.5z M108.4,36.2c-2.1,0-3.7-1.7-3.7-3.7
		c0-2.1,1.7-3.7,3.7-3.7c2.1,0,3.7,1.7,3.7,3.7C112.2,34.5,110.5,36.2,108.4,36.2z"/>
	<path d="M108.4,31.1c-0.7,0-1.2,0.6-1.2,1.2c0,0.7,0.6,1.2,1.2,1.2c0.7,0,1.2-0.6,1.2-1.2C109.7,31.6,109.1,31.1,108.4,31.1z"/>
</g>
<path d="M141.6,75.3h-2.4v1.2h1.5l-2,2c-0.7-0.5-1.5-0.9-2.5-0.9c-2.3,0-4.2,1.9-4.2,4.2s1.9,4.2,4.2,4.2s4.2-1.9,4.2-4.2
	c0-1-0.3-1.8-0.8-2.5l2-2v1.5h1.3v-2.4v-1.2H141.6z M136.2,84.8c-1.6,0-3-1.3-3-3s1.3-3,3-3c1.6,0,3,1.3,3,3
	C139.2,83.5,137.9,84.8,136.2,84.8z"/>
<path d="M53.9,35.9c-0.1-0.1-0.4-0.3-0.6-0.4l0,0c-0.1-0.1-0.2-0.2-0.3-0.3l0,0c0-0.1-0.1-0.2-0.1-0.2l0,0c-0.1-0.1-0.2-0.2-0.3-0.4
	l0,0c0-0.1-0.1-0.1-0.1-0.2l0,0c-0.1-0.1-0.1-0.3-0.2-0.4l0,0c0-0.1,0-0.1-0.1-0.2c0,0,0,0,0-0.1s0-0.1-0.1-0.2l0,0
	c0-0.1,0-0.1,0-0.2c0,0,0,0,0-0.1s0-0.1,0-0.2c0,0,0,0,0-0.1s0-0.2,0-0.2c0-0.1,0-0.2,0-0.2s0,0,0-0.1s0-0.1,0-0.2c0,0,0,0,0-0.1
	c0-0.1,0-0.2,0-0.2l0,0c0-0.1,0-0.1,0.1-0.2c0,0,0,0,0-0.1s0-0.1,0.1-0.2l0,0c0.1-0.1,0.1-0.3,0.2-0.4l0,0c0-0.1,0.1-0.1,0.1-0.2
	l0,0c0.1-0.1,0.2-0.3,0.3-0.4l0,0c0-0.1,0.1-0.1,0.1-0.2l0,0c0.1-0.1,0.2-0.2,0.3-0.3l0,0c0.2-0.2,0.4-0.3,0.6-0.4l0,0
	c0.4-0.3,0.9-0.4,1.5-0.5c-0.4-0.4-0.9-0.7-1.5-0.9c-0.1-0.1-0.3-0.1-0.4-0.2l0,0c-0.1,0-0.1,0-0.2-0.1l0,0c-0.1,0-0.1,0-0.2,0l0,0
	c-0.1,0-0.1,0-0.2,0c0,0,0,0-0.1,0s-0.1,0-0.2,0h-0.1h-0.1c-0.1,0-0.2,0-0.3,0c-2.8,0-5,2.2-5,5s2.2,5,5,5c0.1,0,0.2,0,0.3,0h0.1
	h0.1c0.1,0,0.1,0,0.2,0c0,0,0,0,0.1,0s0.1,0,0.2,0l0,0c0.1,0,0.1,0,0.2,0l0,0c0.1,0,0.2,0,0.2-0.1l0,0c0.2,0,0.3-0.1,0.4-0.2
	c0.5-0.2,1-0.5,1.4-0.9C54.9,36.3,54.4,36.2,53.9,35.9L53.9,35.9z M52.1,36.4c-2.1,0-3.7-1.7-3.7-3.7s1.7-3.7,3.7-3.7
	c0.1,0,0.3,0,0.4,0c-1,0.9-1.7,2.2-1.7,3.7s0.6,2.8,1.7,3.7C52.4,36.4,52.2,36.4,52.1,36.4z"/>
<path d="M136.7,46.8l-1.1,1.5h0.6c0,0.9-0.8,1.9-1.6,2.1v-2.1h0.5l-1.1-1.5l-1.1,1.5h0.6v2.1c-1-0.3-1.7-1.3-1.7-2.1h0.6l-1.1-1.5
	l-1.1,1.5h0.6c0,1.5,1.2,3,2.8,3.3v1.1h-1.1v1.1h1.1v1.1h1.1v-1.1h1v-1.1h-1v-1.1c1.5-0.3,2.7-1.8,2.7-3.3h0.6L136.7,46.8z"/>
<path d="M27.9,80.4h-1.3v-2.8h-1.4v2.8h-1.5c0.4-0.7,0.7-1.3,0.7-2.1c0-1.9-1.7-3.5-3.5-3.5v1.4c1.2,0,2.1,0.9,2.1,2.1
	s-0.9,2.1-2.1,2.1v1.5h4.4v4.3h1.4v-4.3H28v-1.5H27.9z"/>
<path d="M80.3,15.1c-2.5,0-4.4,2-4.4,4.4c0,2.5,2,4.4,4.4,4.4c2.5,0,4.4-2,4.4-4.4C84.7,17.1,82.7,15.1,80.3,15.1z M83.6,19h-2.7
	v-2.7C82.3,16.6,83.3,17.6,83.6,19z M79.7,16.3V19H77C77.3,17.6,78.3,16.6,79.7,16.3z M77,20.2h2.7v2.7C78.3,22.6,77.3,21.5,77,20.2
	z M80.9,22.9v-2.7h2.7C83.3,21.5,82.3,22.6,80.9,22.9z"/>
</svg>
